HIERARCHY
ROOT Hips
{
	OFFSET 0.000000 0.000000 0.000000
	CHANNELS 6 Xposition Yposition Zposition Xrotation Yrotation Zrotation
	JOINT LeftUpLeg_virtual
	{
		OFFSET 0.000000 0.000000 0.000000
		CHANNELS 3 Xrotation Yrotation Zrotation
		JOINT LeftUpLeg
		{
			OFFSET 15.427100 -6.655098 0.678600
			CHANNELS 3 Xrotation Yrotation Zrotation
			JOINT LeftLeg
			{
				OFFSET 4.081073 -39.591068 13.024000
				CHANNELS 3 Xrotation Yrotation Zrotation
				JOINT LeftFoot
				{
					OFFSET -4.081074 -37.707932 -15.979700
					CHANNELS 3 Xrotation Yrotation Zrotation
					JOINT LeftToeBase
					{
						OFFSET 5.346399 -15.068900 20.645000
						CHANNELS 3 Xrotation Yrotation Zrotation
						JOINT LeftToe_End
						{
							OFFSET 2.754700 0.931300 11.300900
							CHANNELS 3 Xrotation Yrotation Zrotation
							End Site
							{
								OFFSET 0 0 0
							}
						}
					}
				}
			}
		}
	}
	JOINT RightUpLeg_virtual
	{
		OFFSET 0.000000 0.000000 0.000000
		CHANNELS 3 Xrotation Yrotation Zrotation
		JOINT RightUpLeg
		{
			OFFSET -15.569500 -6.655098 0.678600
			CHANNELS 3 Xrotation Yrotation Zrotation
			JOINT RightLeg
			{
				OFFSET -4.081825 -39.591045 13.023800
				CHANNELS 3 Xrotation Yrotation Zrotation
				JOINT RightFoot
				{
					OFFSET 4.081824 -37.707954 -15.979600
					CHANNELS 3 Xrotation Yrotation Zrotation
					JOINT RightToeBase
					{
						OFFSET -5.346400 -15.068900 20.645000
						CHANNELS 3 Xrotation Yrotation Zrotation
						JOINT RightToe_End
						{
							OFFSET -2.754700 0.931300 11.300900
							CHANNELS 3 Xrotation Yrotation Zrotation
							End Site
							{
								OFFSET 0 0 0
							}
						}
					}
				}
			}
		}
	}
	JOINT Spine_virtual
	{
		OFFSET 0.000000 0.000000 0.000000
		CHANNELS 3 Xrotation Yrotation Zrotation
		JOINT Spine
		{
			OFFSET -0.279200 12.230698 -2.892100
			CHANNELS 3 Xrotation Yrotation Zrotation
			JOINT Spine1
			{
				OFFSET -0.232667 10.192268 -1.242267
				CHANNELS 3 Xrotation Yrotation Zrotation
				JOINT Spine1_split
				{
					OFFSET -0.232667 10.192268 -1.242267
					CHANNELS 3 Xrotation Yrotation Zrotation
					JOINT Spine2
					{
						OFFSET -0.232667 10.192268 -1.242267
						CHANNELS 3 Xrotation Yrotation Zrotation
						JOINT Neck_virtual
						{
							OFFSET 0.000000 0.000000 0.000000
							CHANNELS 3 Xrotation Yrotation Zrotation
							JOINT Neck
							{
								OFFSET -0.418800 17.814194 8.416900
								CHANNELS 3 Xrotation Yrotation Zrotation
								JOINT Head
								{
									OFFSET 0.000000 7.031097 3.806800
									CHANNELS 3 Xrotation Yrotation Zrotation
									JOINT HeadTop_End
									{
										OFFSET 0.000000 24.646606 12.978600
										CHANNELS 3 Xrotation Yrotation Zrotation
										End Site
										{
											OFFSET 0 0 0
										}
									}
								}
							}
						}
						JOINT LeftShoulder_virtual
						{
							OFFSET 0.000000 0.000000 0.000000
							CHANNELS 3 Xrotation Yrotation Zrotation
							JOINT LeftShoulder
							{
								OFFSET 8.476499 7.247704 -3.868750
								CHANNELS 3 Xrotation Yrotation Zrotation
								JOINT LeftShoulder_split
								{
									OFFSET 8.476499 7.247704 -3.868750
									CHANNELS 3 Xrotation Yrotation Zrotation
									JOINT LeftArm
									{
										OFFSET 9.308998 -2.777710 0.208600
										CHANNELS 3 Xrotation Yrotation Zrotation
										JOINT LeftForeArm
										{
											OFFSET 29.972298 0.000000 0.000000
											CHANNELS 3 Xrotation Yrotation Zrotation
											JOINT LeftHand
											{
												OFFSET 26.026505 0.000000 0.000000
												CHANNELS 3 Xrotation Yrotation Zrotation
												End Site
												{
													OFFSET 0 0 0
												}
											}
										}
									}
								}
							}
						}
						JOINT RightShoulder_virtual
						{
							OFFSET 0.000000 0.000000 0.000000
							CHANNELS 3 Xrotation Yrotation Zrotation
							JOINT RightShoulder
							{
								OFFSET -7.570500 7.247704 -3.868750
								CHANNELS 3 Xrotation Yrotation Zrotation
								JOINT RightShoulder_split
								{
									OFFSET -7.570500 7.247704 -3.868750
									CHANNELS 3 Xrotation Yrotation Zrotation
									JOINT RightArm
									{
										OFFSET -9.308998 -2.777710 0.208500
										CHANNELS 3 Xrotation Yrotation Zrotation
										JOINT RightForeArm
										{
											OFFSET -29.972300 0.000000 0.000000
											CHANNELS 3 Xrotation Yrotation Zrotation
											JOINT RightHand
											{
												OFFSET -26.026505 0.000000 0.000000
												CHANNELS 3 Xrotation Yrotation Zrotation
												End Site
												{
													OFFSET 0 0 0
												}
											}
										}
									}
								}
							}
						}
					}
				}
			}
		}
	}
}
MOTION
Frames: 10
Frame Time: 0.03333333
-12.788127 62.997627 -4.883114 0.000000 0.000000 0.000000 -4.152025 -5.962566 -1.825669 -60.163400 -11.227126 8.745964 68.522841 -20.429999 -10.666633 1.996841 -3.061437 -1.767044 -2.017725 0.507497 0.862683 0.000000 0.000000 0.000000 -4.711939 -0.197802 -1.275025 -14.791137 5.499209 -0.212972 85.677989 -11.575279 -9.308047 -35.641122 -6.732179 24.427553 -35.040127 0.499771 -0.518172 0.000000 0.000000 0.000000 -7.413515 0.710443 -2.153030 11.868527 1.821865 -1.729272 5.815240 0.699015 -3.313297 0.326274 -0.524228 0.062834 0.000000 0.000000 0.000000 5.463446 0.815694 -2.873731 1.844217 -3.245965 9.708326 12.466624 1.903170 -6.194130 0.000000 0.000000 0.000000 5.344343 0.524016 -2.383402 -7.552414 -39.797579 -7.015092 -2.145537 -4.342609 -2.753176 -37.478532 -14.494945 -33.197540 -93.250449 -55.610215 -88.685738 0.000000 0.000000 0.000000 5.434729 0.513832 -2.653321 -8.494442 30.775036 11.655908 -1.865203 -2.841230 5.037285 -47.781637 6.347325 39.302094 -130.323015 54.604805 128.280255 0.000000 0.000000 0.000000 
-13.085407 67.181824 -4.107235 0.000000 0.000000 0.000000 -2.036515 -4.176005 -1.012529 -54.778845 -11.049127 6.513408 59.603673 -20.022734 -9.347519 3.199178 -3.946659 -2.691899 -4.174911 0.423027 1.347101 0.000000 0.000000 0.000000 -2.495929 1.756874 -0.608592 -10.760420 2.663358 0.347703 77.807029 -11.765639 -9.817935 -35.884383 -6.399604 22.847563 -32.452483 0.846813 -0.688938 0.000000 0.000000 0.000000 -5.176036 1.734096 -1.503625 10.825873 1.636788 -1.882675 3.755967 0.309744 -3.823691 1.177269 -0.273050 0.194476 0.000000 0.000000 0.000000 3.377826 0.385814 -3.045959 -5.028384 -3.602370 8.627630 12.112809 0.907746 -6.387475 0.000000 0.000000 0.000000 3.171818 0.253837 -2.680369 -6.732618 -35.060983 -6.274485 -1.715182 -5.797021 -1.398553 -27.701422 -13.250165 -24.040709 -111.254656 -62.302622 -109.889705 0.000000 0.000000 0.000000 3.310425 0.083133 -3.064470 -7.530315 25.772763 8.828605 -1.892152 -1.750906 3.736644 -38.713027 10.980744 35.530214 -148.506385 57.488712 148.294349 0.000000 0.000000 0.000000 
-13.344639 72.260254 -2.830490 0.000000 0.000000 0.000000 0.291314 -2.581000 -0.473612 -48.726064 -10.785676 5.347776 48.398642 -19.200442 -8.587379 6.112023 -4.301817 -3.198383 -5.147098 0.291207 1.516804 0.000000 0.000000 0.000000 -0.071453 2.892656 -0.155294 -6.509986 -0.216583 0.889202 67.292417 -11.663702 -10.383296 -33.636172 -5.335580 21.097659 -31.473583 1.193029 -0.566554 0.000000 0.000000 0.000000 -2.479521 2.393320 -1.023379 9.146266 1.788851 -1.747119 1.519538 0.267956 -4.265860 1.369617 -0.470356 0.516529 0.000000 0.000000 0.000000 1.336075 0.149248 -3.156646 -14.432876 -4.205364 7.139768 11.557634 -0.029598 -6.968744 0.000000 0.000000 0.000000 0.948721 0.275587 -2.979120 -5.900667 -28.646228 -5.503437 -1.633375 -5.793209 0.317160 -20.656662 -9.257842 -16.103225 -119.418085 -71.635038 -121.517726 0.000000 0.000000 0.000000 1.272895 -0.072366 -3.464406 -6.934088 20.198121 5.909311 -2.136056 -0.114475 2.280127 -27.193358 12.387321 28.376629 -163.979564 62.886843 165.997967 0.000000 0.000000 0.000000 
-13.484029 77.637848 -1.169979 0.000000 0.000000 0.000000 2.636126 -1.606525 -0.532844 -42.420990 -10.078683 5.598492 36.433906 -17.774990 -8.226672 9.146514 -3.808410 -3.055127 -4.475026 0.221482 1.141533 0.000000 0.000000 0.000000 2.312214 2.920604 -0.197677 -2.507704 -2.818467 1.618299 55.410067 -11.109565 -10.677017 -29.179436 -3.570689 19.062800 -32.237147 1.549032 -0.246155 0.000000 0.000000 0.000000 0.249181 2.543203 -1.026905 7.259837 2.311221 -1.315224 -0.542890 0.647743 -4.430859 1.490783 -0.744669 0.846271 0.000000 0.000000 0.000000 -0.532425 0.230672 -3.053566 -25.887365 -4.869196 5.344793 11.034384 -0.802929 -7.789391 0.000000 0.000000 0.000000 -0.948657 0.593107 -3.158417 -5.065324 -21.135670 -4.511095 -2.443321 -4.285289 1.418685 -16.983866 -3.664009 -9.938872 -55.814967 -84.884389 -61.855546 0.000000 0.000000 0.000000 -0.408327 0.153117 -3.646496 -6.780132 14.361499 3.223311 -2.515491 1.260471 1.102880 -14.707779 9.068944 19.843889 174.409837 73.812481 -169.668797 0.000000 0.000000 0.000000 
-13.462955 82.416267 0.679821 0.000000 0.000000 0.000000 4.617155 -1.733710 -1.135615 -36.655289 -8.882034 7.121624 26.058893 -16.257925 -7.872993 10.968865 -2.839340 -2.856599 -3.266293 0.217684 0.580303 0.000000 0.000000 0.000000 4.272846 2.377891 -0.890283 0.723859 -4.962113 2.494058 44.827693 -10.222947 -10.345074 -23.303280 -1.392475 16.858681 -35.294333 1.956424 0.064841 0.000000 0.000000 0.000000 2.454284 2.164292 -1.545744 5.714403 3.127923 -0.659446 -2.035831 1.361015 -4.169417 1.324206 -1.095096 0.779097 0.000000 0.000000 0.000000 -1.989283 0.620374 -2.650065 -38.027560 -5.231768 3.522130 10.866445 -1.463750 -8.687079 0.000000 0.000000 0.000000 -2.273833 1.211577 -3.046749 -4.380625 -13.507024 -3.124737 -4.093837 -2.175015 1.973591 -15.860575 3.016859 -5.460589 22.747721 -63.704280 11.889976 0.000000 0.000000 0.000000 -1.608071 0.770573 -3.421676 -7.049237 8.686234 0.973955 -2.785509 2.106475 0.487611 -3.881892 1.227696 12.316370 77.638385 79.348903 -69.707995 0.000000 0.000000 0.000000 
-13.295355 85.882401 2.661522 0.000000 0.000000 0.000000 5.829292 -2.836150 -2.180754 -32.119634 -7.506934 9.393570 19.372419 -15.379247 -7.316453 11.227725 -1.981034 -3.002198 -3.098933 0.219094 0.227796 0.000000 0.000000 0.000000 5.534488 1.577681 -2.065769 2.850905 -6.573411 3.236445 38.000454 -9.033516 -9.255006 -16.693655 0.953661 15.070809 -40.740029 2.376651 0.209175 0.000000 0.000000 0.000000 3.641692 1.407844 -2.449572 4.938613 4.013157 0.058674 -2.818989 2.193120 -3.460077 1.523057 -1.372243 0.720861 0.000000 0.000000 0.000000 -2.814433 1.217808 -1.943780 -49.024772 -5.032866 1.934766 11.239178 -1.828679 -9.446840 0.000000 0.000000 0.000000 -2.875455 1.952994 -2.538202 -3.978826 -6.540989 -0.805642 -5.634901 -0.685664 1.658809 -16.198116 9.267330 -2.388600 28.711288 -36.103079 12.150547 0.000000 0.000000 0.000000 -2.241027 1.580986 -2.721050 -7.586312 3.584363 -0.747770 -3.214112 2.464047 0.500826 4.015252 -8.859730 7.190741 36.808115 58.975180 -25.191129 0.000000 0.000000 0.000000 
-12.932832 87.755104 4.438049 0.000000 0.000000 0.000000 6.092110 -4.368474 -3.382668 -29.187297 -6.293853 11.680750 17.400004 -15.448874 -6.627183 10.068058 -1.582944 -3.417285 -4.102815 0.213763 0.292576 0.000000 0.000000 0.000000 5.853381 0.957091 -3.495156 3.666897 -7.850940 3.286084 36.024979 -7.316628 -7.616370 -10.297329 3.331532 14.350950 -47.011130 2.731620 0.191470 0.000000 0.000000 0.000000 3.830058 0.431189 -3.473096 4.950773 4.783408 0.652330 -2.950521 2.974773 -2.462307 2.300091 -0.920908 0.468838 0.000000 0.000000 0.000000 -2.969412 1.910279 -1.056854 -57.126148 -4.249863 0.995504 12.211711 -1.675849 -9.955842 0.000000 0.000000 0.000000 -2.922298 2.733573 -1.643365 -4.087869 -0.697659 2.199819 -6.481346 -0.466889 1.095126 -16.617048 13.466381 -0.957768 32.388402 -15.565477 9.806383 0.000000 0.000000 0.000000 -2.401333 2.377162 -1.774388 -8.217894 -0.805355 -2.072134 -3.980777 1.967347 0.988166 8.835016 -18.796025 3.897324 28.918734 38.717778 -13.517641 0.000000 0.000000 0.000000 
-12.482914 88.162628 5.978870 0.000000 0.000000 0.000000 5.561379 -5.439575 -4.368498 -27.968218 -5.598595 13.366380 19.571929 -16.172413 -5.939968 7.906634 -1.621096 -3.666028 -5.279478 0.196604 0.645054 0.000000 0.000000 0.000000 5.267795 1.025283 -4.742387 3.555924 -8.998197 2.425741 37.755612 -5.280395 -5.994050 -5.347585 5.445160 14.286522 -52.025739 3.000891 0.126461 0.000000 0.000000 0.000000 3.139214 -0.228003 -4.278843 5.517086 5.274915 0.987533 -2.626958 3.564025 -1.417158 2.264433 -0.352427 0.400961 0.000000 0.000000 0.000000 -2.445052 2.538022 -0.230226 -61.482665 -3.104777 0.838887 13.586594 -0.939249 -10.219942 0.000000 0.000000 0.000000 -2.583319 3.437939 -0.526945 -4.708684 3.336047 5.647893 -6.194959 -0.845783 0.216070 -16.914847 15.589574 -0.231361 35.894570 -6.038356 8.157874 0.000000 0.000000 0.000000 -2.277696 2.958397 -0.800657 -8.873522 -4.213946 -3.162764 -4.925965 1.592678 1.367573 10.496677 -27.372255 1.230620 26.033729 25.767495 -7.268170 0.000000 0.000000 0.000000 
-11.969551 87.611923 7.347816 0.000000 0.000000 0.000000 4.470244 -5.227141 -4.927389 -27.933392 -5.475184 13.850071 23.781720 -16.867226 -5.404470 5.090984 -1.828393 -3.498563 -5.729453 0.216669 0.935378 0.000000 0.000000 0.000000 4.226192 1.432408 -5.374806 3.105717 -10.052748 0.850860 40.888142 -3.397885 -4.933048 -2.619231 6.752572 14.252150 -55.244346 3.153907 0.068412 0.000000 0.000000 0.000000 1.913849 -0.213635 -4.674308 6.239031 5.350924 0.994554 -2.151253 3.903772 -0.587462 1.949928 0.325776 0.595622 0.000000 0.000000 0.000000 -1.535304 3.015786 0.328514 -62.054885 -1.917889 1.420552 14.977828 0.295770 -10.185252 0.000000 0.000000 0.000000 -2.054973 3.905920 0.496700 -5.485856 5.155914 8.946399 -4.652565 -1.410447 -0.472188 -17.228930 15.973070 0.688828 39.077421 -4.983706 7.677578 0.000000 0.000000 0.000000 -1.904164 3.230851 -0.085902 -9.418281 -6.455559 -4.003543 -5.689374 1.402166 1.244914 9.757070 -33.515735 -1.167824 24.386752 20.116386 -3.207015 0.000000 0.000000 0.000000 
-11.415079 86.693214 8.407917 0.000000 0.000000 0.000000 3.337958 -3.832367 -4.830050 -28.454199 -5.751458 12.974393 27.939493 -17.161462 -5.241237 2.055435 -2.013507 -3.044341 -4.989807 0.320218 0.955451 0.000000 0.000000 0.000000 3.017247 2.292197 -5.253261 3.088341 -11.165933 -1.060295 43.398759 -2.089273 -4.564017 -1.953555 7.055468 14.080063 -56.809955 3.226226 0.077650 0.000000 0.000000 0.000000 0.671974 0.765651 -4.515381 6.672527 5.079803 0.733313 -1.693711 4.010239 -0.137710 1.005836 1.043572 0.442265 0.000000 0.000000 0.000000 -0.577295 3.273677 0.514486 -59.457985 -0.938700 2.641266 15.923818 1.797363 -9.919951 0.000000 0.000000 0.000000 -1.521629 4.118848 1.140845 -5.985628 4.743643 11.012022 -2.389134 -1.878118 -0.251547 -17.408709 16.277905 1.977073 41.079701 -7.808329 7.539609 0.000000 0.000000 0.000000 -1.497216 3.198655 0.233019 -9.784623 -7.440098 -4.420622 -5.881623 1.609980 0.577218 7.588887 -37.151892 -3.205415 22.733491 18.721591 -0.385013 0.000000 0.000000 0.000000 
